# xmcd
#
# Track frame offsets:
#   150
#   17220
#   31690
#   48044
#   63258
#   82391
#   92748
#   108775
#   122048
#   138969
#
# Disc length: 2022 seconds
#
# Revision: 0
# Processed by: cddbd v1.5.2PL0 Copyright (c) Steve Scherf et al.
# Submitted via: uFREEDB ActiveX Control 1.5
#
DISCID=7807e40a
DTITLE=Kim - Sentimento
DYEAR=1900
DGENRE=Gospel and Religious
TTITLE0=kim1
TTITLE1=kim2
TTITLE2=kim3
TTITLE3=kim4
TTITLE4=kim5
TTITLE5=kim6
TTITLE6=kim7
TTITLE7=kim8
TTITLE8=kim9
TTITLE9=kim10
EXTD=
EXTT0=
EXTT1=
EXTT2=
EXTT3=
EXTT4=
EXTT5=
EXTT6=
EXTT7=
EXTT8=
EXTT9=
PLAYORDER=
